<svg width="209" height="455" viewBox="0 0 209 455" fill="none" xmlns="http://www.w3.org/2000/svg">
<g clip-path="url(#clip0_91_2)">
<path d="M190.78 322.82C191.7 325.01 193.18 327.69 192.94 330.77L190.8 328.13C192.57 333.51 190.47 338.86 190.7 343.52C191.27 355.22 194.95 367.57 198.14 377.78C198.69 379.55 198.34 382.1 199.17 384.01L197.17 383.35C198.11 407.23 204.69 430.53 202.44 454.51C201.57 453.54 199.55 454.43 199.45 454.32C198.97 453.76 196.58 447.92 195.7 446.38C192.45 440.63 190.32 435.19 187.19 429.04L185.47 412.02L183.37 414.13L178.04 389.72C176.6 389.73 175.19 393.29 175.16 394.27C174.99 398.85 178.86 407.2 179 412.66C179.05 414.79 177.95 416.76 177.97 418.9C178 421.93 179.85 428.17 178.61 430.08C175.45 434.92 174.35 423.02 173.32 420.43C172.53 418.42 170.6 418.35 170.61 416.27L167.46 419.44C166.02 406.83 161.72 394.91 156.83 383.35C154.95 383.1 155.78 385.75 155.91 386.93C156.57 393.22 159.53 399.64 160.01 406.2C160.1 407.38 160.8 410.15 158.98 409.89C157.84 401.11 156.01 391.36 153.62 382.86C150.13 370.45 145.52 358.62 142.66 345.96C141.27 339.8 142.16 333.54 140.41 327.06C138.69 320.65 134.36 311.62 129.8 306.89C129.31 311.11 132.31 315.97 133.27 320.41C133.5 321.48 134.35 324.13 132.47 323.87C132.47 319.91 130.22 316.79 128.83 313.33C128.55 312.63 129.54 311.34 129.27 311.15C126.71 309.29 127.75 313.71 126.1 313.26L122.92 304.78L128.23 339.27C117.99 336.76 114.22 324.97 110.1 316.2C108.42 312.61 109.71 314.82 109.05 311.8C108.31 308.4 106.94 305.13 107 301.58L104.9 302.65L99.58 279.29C98.15 279.34 96.59 283.07 96.53 284.01C96.3 287.39 99.69 298.33 100.25 303.36C100.47 305.34 99.32 307.75 99.64 310.5C100.03 313.95 103.33 317.16 100.13 320.69C96.17 316.08 96.31 310.39 92.15 305.83L89 309.01C87.39 295.77 81.76 283.59 78.37 270.79C76.54 270.53 77.25 273.3 77.34 274.48C77.76 280.11 82.48 296.1 81.37 299.76C81.03 300.87 79.58 302.34 78.4 302.65L76.25 287.27L78.37 287.29C76 270.58 70.4 255.51 64.92 240.25C64.46 238.98 62.88 239.19 62.57 238.25C61.17 233.98 68.23 231.18 62.41 226.8C56.1 222.06 54.03 234.34 56.11 238.93C49.82 240.67 52.01 234.15 50.8 229.37C47.22 231.73 50.37 225.96 45.52 230.44C46.22 228.07 44.29 213.14 43.37 212.39C43.09 212.16 41.08 212.53 40.21 212.39L39.16 223.01L39.14 206.03L35.98 210.27L35.96 202.84L32.8 203.9C33.04 196.16 31.8 188.05 28.61 181.01L27.49 172.04V197.53H26.43V180.54L23.26 185.84C22.29 180.95 24.26 176 24.41 171.51C24.79 159.97 25.85 154.86 27.36 143.77C28.11 138.23 26.99 132.09 28.56 126.38C32.88 125.29 28.9 131.2 31.72 131.69L33.84 125.33L33.86 138.06C37.9 139.03 34.59 133.89 37.01 132.16C37.88 131.53 40.67 133.33 41.27 132.76C42.16 131.92 40.09 130.23 39.87 129.57C39.6 128.77 40.34 127.54 40.22 127.46C39.64 127.12 37 129.3 35.98 126.92C40.22 125.37 39.39 119.12 39.14 115.25C39.06 114.01 38.74 109.56 37.05 109.41L34.93 116.83L35.97 110.46L32.81 112.58C32.4 112.04 33.57 106.13 33.95 104.91C35.67 99.46 39.24 93.53 41.6 87.92C43.18 84.16 42.92 78.38 44.47 74.36L47.11 78.61L49.75 74.35L49.77 82.84C51.59 83.04 50.68 80.37 52.56 79.75C53.62 79.4 56.4 81.39 57.18 79.12C57.54 78.06 53.86 79.34 55.58 77.52C59.88 76.45 57.92 72.61 58.25 69.03L60.35 70.1C60.35 66.76 61.71 62.19 61.43 58.96C61.38 58.36 58.21 59.5 57.18 56.81C56.91 56.12 62.11 56.37 57.18 54.7L62.48 51C59.2 50.88 59.04 48.54 59.29 45.67L57.19 47.78L57.17 43.54L52.95 47.78C52.25 43.36 47.95 41 48.66 36.14C39.58 35.94 30.66 33.73 21.65 32.93C17.95 32.6 13.03 33.84 10.34 33.43C8.62999 33.17 6.77999 28.45 0.929994 31.36C0.219994 31.01 -0.160006 27.12 0.0799939 26.77C0.819994 25.68 16.14 17.92 18.49 17C21.15 15.95 17.95 21.35 20.58 19.1C21.69 18.16 21.83 16.16 22.93 15.9C29.39 14.38 37.55 14.93 43.81 10.49C45.32 9.41999 45.26 7.71999 45.52 7.42999C46.71 6.08999 45.89 10.44 48.14 9.53999C50.97 8.39999 51.96 3.15999 52.46 3.10999C54.14 2.94999 57 4.38999 59.76 4.27999C64.01 4.10999 71.65 -0.68001 72.55 3.21999C76.38 -0.28001 79.41 3.50999 83.11 3.15999C85.54 2.92999 86.97 0.0499902 89.5 -0.0100098C91 0.59999 87.93 2.15999 87.94 2.64999C87.98 7.08999 98.28 0.35999 100.98 0.98999C101.95 1.21999 101.98 3.16999 102.81 3.61999C104.14 4.34999 105.82 4.21999 106.91 4.87999C111.63 7.71999 116.23 12.48 121.85 13.82C122.27 15.75 120.07 14.49 119.74 14.88C119.23 15.48 122.41 17.5 121.86 18.05C114.13 15.69 120.07 22.53 123.46 24.42C126.26 22.76 122.7 19.33 122.92 19.13C126.07 16.31 126.16 23.85 126.32 24.17C126.44 24.4 128.6 27.23 129.17 28.02C130.09 29.3 132.14 28.42 132.46 28.69C132.77 28.95 131.66 30.95 131.95 31.97C134.74 41.78 139.66 33.35 142 35.06L139.89 40.36C150.92 34.16 146.06 47.46 151.55 52.58C147.34 53.72 150.51 55.01 151.56 57.86L149.43 58.39C148.84 69.67 155.24 61.69 160.02 67.43C159.6 68.86 157.15 66.58 156.85 66.88C156.66 67.07 155.57 72.02 155.78 72.19C155.94 72.33 158.53 72.08 159.99 72.75C161 73.22 161.84 75.08 162.67 75.15C163.2 75.2 167.53 71.78 167.43 74.84C167.42 75.27 165.28 76.44 164.84 77.53C163.81 80.09 163.59 83.39 162.16 85.98C168.17 83.46 171.5 76.89 179.12 78.56C179.57 80.34 177.35 79 177.04 80.27C176.98 80.5 176.83 84.76 177.01 84.92C177.33 85.2 183.08 82.48 184.97 85.95C185.37 86.68 184.36 88.1 184.52 88.49C186.65 93.59 186.35 98.64 189.71 103.53L187.61 104.03L189.74 113.05L187.61 111.48C189.21 115.42 187.38 118.76 187.66 122.47C188.2 129.74 193.37 136.52 196.07 142.82C197.36 145.84 193.56 141.89 193.99 144.88C196.08 159.33 202.65 171.93 201.38 186.87L195.03 184.75C194.71 191.59 195.42 198.94 198.22 205.24C198.34 205.51 203.96 208.87 198.19 209.16C199.77 207.57 197.54 205.67 196.09 204.93L198.19 219.79L196.09 216.61C198.03 221.52 195.6 223.76 195.18 227.45C194.78 230.88 199.19 251.96 200.41 256.14C200.63 256.89 204.81 261.12 203.5 264.4L201.4 263.32C202.95 283.71 210.11 303.16 208.81 323.86C207.88 325.37 200.12 317.91 199.33 316.61C196.76 312.38 193.52 303.19 192.63 299.22C191.86 295.79 190.89 292.35 190.78 288.81L188.7 289.87L181.25 267.59C180.17 273.23 179.78 275.45 182.65 280.54C183.52 282.09 185.15 282.37 185.67 283.96C186.66 287 185.22 288.53 185.45 290.24C185.55 290.98 188.2 300.73 188.9 303.96C189.8 308.06 192.13 313.15 192.9 316.95C193.42 319.52 191.81 318.01 190.78 317.48C190.63 319.23 190.95 321.06 190.78 322.8L186.54 317.5L187.61 329.17C190.85 327.49 190.48 325.71 190.78 322.8V322.82ZM155.92 155.92C155.39 155.45 156.54 153.54 154.74 153.98C155.06 159.78 158.72 164.32 161.54 168.97C162.19 170.05 162.07 171.91 162.17 172.03C162.28 172.16 165.21 171.02 165.32 170.9C167.05 169.04 161.22 162.27 160.2 160.71C159.12 159.04 158.74 156.84 157.96 155.59C157.38 154.66 156.32 156.26 155.92 155.92ZM177.01 166.73C177.71 167.34 180.89 166.51 181.19 165.06C181.56 163.28 178.09 158.43 178.05 156.12C177.47 156.38 174.86 158.67 174.86 158.88C174.84 159.29 176.71 166.47 177.02 166.73H177.01ZM139.88 198.57C138.6 194.45 138.49 188.38 134.59 185.84C134.79 189.44 136.41 192.79 137.66 196.07C138.25 197.6 136.65 199.16 139.87 198.57H139.88ZM142.01 218.76L136.71 199.65C137.86 202.12 134.59 203.22 134.58 203.46C134.53 205.26 136.24 209.5 136.57 211.99C136.97 214.97 136.13 218.61 136.91 221.2C137.69 223.79 141.51 224.13 140.4 228.31C145.58 226.42 143.22 221.98 144.11 217.69L142.01 218.76ZM195.8 214.22C196.48 213.01 195.06 206.52 192.91 206.01V217.68C194.69 217.98 193.63 216.12 194.33 214.86C194.56 214.44 195.66 214.46 195.8 214.21V214.22ZM120.79 211.32V227.25L118.68 223.01C119.81 230 116.24 234.72 116.56 241.57C116.61 242.74 117 247.3 118.66 247.42L119.72 238.94C121.62 242.92 121.04 246.95 121.87 251.13C122.24 253.01 120.75 254.3 123.97 253.79C122.37 248.83 121.87 245.81 128.21 246.36C126.63 241.58 123.39 239.91 130.34 238.91C129.29 236.26 124.49 228.86 126.1 226.19C126.27 225.91 129.32 227.83 131.39 223.53C131.5 223.29 127.79 221.49 127.68 219.82L125.04 221.94L123.96 212.4L121.86 214.51L120.79 211.33V211.32ZM119.73 221.94C120.6 221.08 118.92 213.81 116.57 213.45C116.22 217.14 114.8 223.32 119.73 221.94ZM184.41 267.6C184.74 265.62 180.83 252.31 179.65 252.74C177.09 253.69 178.97 255.14 179.3 256.25C180.35 259.73 181.67 265.34 184.4 267.6H184.41ZM180.18 386.52C178.11 381.11 178.46 373.74 173.83 369.54C174.46 374.2 176.08 379.85 177.79 384.2C178.43 385.82 177.18 387.07 180.18 386.52Z" fill="black"/>
<path d="M145.18 408.82C141.9 409.38 143.53 407.92 143.05 406.23C142.04 402.61 140.76 398.87 140.95 395.03C146.62 397.56 142.52 404.24 145.18 408.82Z" fill="black"/>
</g>
<defs>
<clipPath id="clip0_91_2">
<rect width="208.96" height="454.51" fill="white"/>
</clipPath>
</defs>
</svg>
